<mxfile host="app.diagrams.net" modified="2023-12-29T18:44:31.528Z" agent="Mozilla/5.0 (Windows NT 10.0; Win64; x64) AppleWebKit/537.36 (KHTML, like Gecko) Chrome/120.0.0.0 Safari/537.36" version="22.1.16" etag="HQiL04WcBVWIj3y25Qtn" type="github">
  <diagram name="Сторінка-1" id="UQyCPQ0WXRGii27kY1zW">
    <mxGraphModel>
      <root>
        <mxCell id="0" />
        <mxCell id="1" parent="0" />
      </root>
    </mxGraphModel>
  </diagram>
</mxfile>
